<?xml version="1.0" encoding="UTF-8"?>
<!-- Generated by Pixelmator Pro 4.0 -->
<svg width="24" height="24" viewBox="0 0 24 24" xmlns="http://www.w3.org/2000/svg">
    <path id="path1" fill="#ff96c4" stroke="none" d="M 1.999 12 C 1.999 17.521999 6.476 22 11.999 22 C 17.521999 22 21.999001 17.521999 21.999001 12 C 21.999001 6.476 17.521999 2 11.999 2 C 6.476 2 1.999 6.476 1.999 12 Z M 16.528999 11.72 C 16.791504 11.982443 16.822542 12.397428 16.601999 12.696 L 16.530001 12.78 L 12.529 16.780001 C 12.266415 17.043068 11.850763 17.074123 11.552 16.853001 L 11.468 16.780001 L 7.468 12.779 C 7.189615 12.501379 7.172864 12.055902 7.429613 11.758159 C 7.686361 11.460414 8.129457 11.41147 8.445 11.646 L 8.529 11.719 L 11.249 14.441 L 11.249 7.748001 C 11.249084 7.372883 11.526299 7.055515 11.898 7.005001 L 11.999 6.998001 C 12.373786 6.998016 12.69103 7.274696 12.742 7.646 L 12.749 7.748001 L 12.749 14.438 L 15.469 11.718 C 15.731844 11.455243 16.147478 11.424613 16.445999 11.646 L 16.530001 11.718 Z"/>
</svg>
