<!DOCTYPE svg PUBLIC "-//W3C//DTD SVG 1.1//EN" "http://www.w3.org/Graphics/SVG/1.1/DTD/svg11.dtd">
<!-- Uploaded to: SVG Repo, www.svgrepo.com, Transformed by: SVG Repo Mixer Tools -->
<svg fill="#ffffff" height="800px" width="800px" version="1.1" id="Layer_1" xmlns="http://www.w3.org/2000/svg" xmlns:xlink="http://www.w3.org/1999/xlink" viewBox="0 0 512 512" enable-background="new 0 0 512 512" xml:space="preserve" stroke="#ffffff">
<g id="SVGRepo_bgCarrier" stroke-width="0"/>
<g id="SVGRepo_tracerCarrier" stroke-linecap="round" stroke-linejoin="round"/>
<g id="SVGRepo_iconCarrier"> <path d="M472.8,90.1L298.6,192.5v-73.9c0-28.4-17.6-41.2-39.2-28.5l-152.8,89.8v-52c0-23.6-19.1-42.7-42.7-42.7H42.7 C19.1,85.3,0,104.4,0,128V384c0,23.5,19.1,42.7,42.7,42.7H64c23.5,0,42.7-19.1,42.7-42.7v-51.9l152.8,89.8 c21.5,12.7,39.2-0.2,39.2-28.5v-74l174.2,102.5c21.5,12.7,39.2-0.2,39.2-28.5V118.6C512,90.2,494.4,77.4,472.8,90.1z"/> </g>
</svg>