<?xml version="1.0" encoding="UTF-8"?>
<!-- Generated by Pixelmator Pro 4.0 -->
<svg width="24" height="24" viewBox="0 0 24 24" xmlns="http://www.w3.org/2000/svg">
    <path id="path1" fill="#ffffff" stroke="none" d="M 16.052 5.028999 C 15.717529 5.468122 15.802124 6.095203 16.240999 6.43 C 18.472078 8.129732 19.473589 10.996819 18.786106 13.716043 C 18.098625 16.435265 15.854823 18.481863 13.084 18.917 L 13.793 18.207001 C 14.171972 17.814621 14.166553 17.190916 13.780819 16.805182 C 13.395084 16.419447 12.771379 16.414028 12.379 16.792999 L 9.879 19.292999 C 9.488618 19.6835 9.488618 20.3165 9.879 20.707001 L 12.379 23.207001 C 12.771379 23.585972 13.395084 23.580553 13.780819 23.194818 C 14.166553 22.809084 14.171972 22.185379 13.793 21.792999 L 12.95 20.951 C 16.616812 20.561375 19.675102 17.974642 20.6677 14.423294 C 21.660295 10.871947 20.386406 7.074377 17.452999 4.84 C 17.013878 4.505529 16.386795 4.590124 16.052 5.028999 Z M 14.122 3.292999 L 11.622 0.792999 C 11.24927 0.416716 10.647796 0.396309 10.25042 0.746466 C 9.853045 1.096622 9.797606 1.695887 10.124 2.112999 L 10.207 2.207001 L 11.05 3.049999 C 7.447216 3.433229 4.425403 5.93923 3.382227 9.408914 C 2.339051 12.878597 3.47789 16.635517 6.272 18.941999 C 6.698762 19.279736 7.317255 19.214178 7.663734 18.794485 C 8.010213 18.37479 7.957447 17.755075 7.545 17.4 C 5.421007 15.64607 4.522698 12.809773 5.249699 10.152879 C 5.976698 7.495985 8.19392 5.512184 10.915 5.084 L 10.207 5.792999 C 9.834789 6.166477 9.81652 6.764788 10.165249 7.160278 C 10.513978 7.555769 11.109871 7.612534 11.527 7.290001 L 11.621 7.207001 L 14.121 4.707001 C 14.477235 4.350731 14.512802 3.785086 14.204 3.387001 L 14.121 3.292999 Z"/>
</svg>
